<svg width="200" height="170" viewBox="0 0 200 170" fill="none" xmlns="http://www.w3.org/2000/svg">
<path d="M53.3852 59.0364C53.8018 59.0364 54.1518 59.1863 54.4352 59.486L57.4102 62.6588C55.9436 64.5243 54.1186 65.9399 51.9352 66.9059C49.7686 67.872 47.1852 68.3549 44.1852 68.3549C41.4686 68.3549 39.0268 67.897 36.8602 66.9808C34.6936 66.0482 32.8518 64.7574 31.3352 63.1085C29.8185 61.4597 28.6518 59.5028 27.8352 57.2376C27.0186 54.9726 26.6102 52.4993 26.6102 49.8178C26.6102 48.019 26.8018 46.312 27.1852 44.6963C27.5852 43.0642 28.1602 41.5653 28.9102 40.1995C29.6602 38.8338 30.5602 37.6013 31.6102 36.502C32.6768 35.4028 33.8768 34.4702 35.2102 33.704C36.5436 32.9213 37.9936 32.3299 39.5602 31.9302C41.1436 31.5139 42.8268 31.3057 44.6102 31.3057C45.9436 31.3057 47.2018 31.4223 48.3852 31.6554C49.5852 31.8886 50.7018 32.2134 51.7352 32.6297C52.7686 33.0462 53.7185 33.5541 54.5852 34.1537C55.4685 34.7367 56.2602 35.3778 56.9602 36.0773L54.4352 39.5249C54.2852 39.7416 54.0935 39.933 53.8602 40.0995C53.6268 40.2662 53.3102 40.3494 52.9102 40.3494C52.5102 40.3494 52.1018 40.2078 51.6852 39.9247C51.2852 39.6416 50.7852 39.3251 50.1852 38.9753C49.6018 38.6256 48.8602 38.3092 47.9602 38.026C47.0768 37.7429 45.9518 37.6013 44.5852 37.6013C43.0686 37.6013 41.6768 37.8761 40.4102 38.4257C39.1435 38.9753 38.0518 39.7748 37.1352 40.824C36.2352 41.8567 35.5352 43.1308 35.0352 44.6464C34.5352 46.1621 34.2852 47.8859 34.2852 49.8178C34.2852 51.7664 34.5518 53.507 35.0852 55.0391C35.6352 56.5549 36.3768 57.8372 37.3102 58.8865C38.2602 59.9357 39.3602 60.7352 40.6102 61.2848C41.8768 61.8178 43.2268 62.0842 44.6602 62.0842C45.5102 62.0842 46.2768 62.0426 46.9602 61.9593C47.6602 61.8761 48.3018 61.7345 48.8852 61.5346C49.4852 61.3348 50.0436 61.0767 50.5602 60.7602C51.0935 60.4438 51.6268 60.044 52.1602 59.561C52.3436 59.4111 52.5352 59.2862 52.7352 59.1863C52.9352 59.0863 53.1518 59.0364 53.3852 59.0364ZM95.913 49.8178C95.913 52.4659 95.463 54.9226 94.563 57.1876C93.6796 59.4528 92.4212 61.4097 90.788 63.0586C89.1712 64.7074 87.2212 66.0065 84.938 66.9558C82.6546 67.8886 80.1212 68.3549 77.338 68.3549C74.5546 68.3549 72.0212 67.8886 69.738 66.9558C67.4546 66.0065 65.4962 64.7074 63.863 63.0586C62.2296 61.4097 60.963 59.4528 60.063 57.1876C59.1796 54.9226 58.738 52.4659 58.738 49.8178C58.738 47.1696 59.1796 44.7213 60.063 42.4729C60.963 40.2078 62.2296 38.2508 63.863 36.602C65.4962 34.9531 67.4546 33.6624 69.738 32.7297C72.0212 31.7803 74.5546 31.3057 77.338 31.3057C80.1212 31.3057 82.6546 31.7803 84.938 32.7297C87.2212 33.6624 89.1712 34.9615 90.788 36.627C92.4212 38.2758 93.6796 40.2328 94.563 42.4979C95.463 44.7463 95.913 47.1864 95.913 49.8178ZM88.238 49.8178C88.238 47.9191 87.988 46.2203 87.488 44.7213C86.988 43.2058 86.263 41.9233 85.313 40.874C84.3796 39.8081 83.238 39.0003 81.888 38.4507C80.5546 37.8845 79.038 37.6013 77.338 37.6013C75.638 37.6013 74.113 37.8845 72.763 38.4507C71.413 39.0003 70.263 39.8081 69.313 40.874C68.3796 41.9233 67.663 43.2058 67.163 44.7213C66.663 46.2203 66.413 47.9191 66.413 49.8178C66.413 51.7332 66.663 53.4486 67.163 54.9642C67.663 56.4632 68.3796 57.7373 69.313 58.7865C70.263 59.8358 71.413 60.6436 72.763 61.2098C74.113 61.7595 75.638 62.0343 77.338 62.0343C79.038 62.0343 80.5546 61.7595 81.888 61.2098C83.238 60.6436 84.3796 59.8358 85.313 58.7865C86.263 57.7373 86.988 56.4632 87.488 54.9642C87.988 53.4486 88.238 51.7332 88.238 49.8178ZM121.04 38.6505C120.807 39.0337 120.565 39.3168 120.315 39.5C120.082 39.6666 119.774 39.7498 119.39 39.7498C119.024 39.7498 118.624 39.6249 118.19 39.375C117.774 39.1086 117.282 38.8254 116.715 38.5256C116.149 38.2258 115.499 37.951 114.765 37.7012C114.032 37.4348 113.174 37.3015 112.19 37.3015C110.457 37.3015 109.157 37.693 108.29 38.4757C107.424 39.2419 106.99 40.2494 106.99 41.4986C106.99 42.298 107.224 42.9643 107.69 43.4972C108.174 44.0136 108.799 44.4633 109.565 44.8462C110.349 45.2294 111.232 45.5707 112.215 45.8705C113.199 46.1703 114.207 46.5035 115.24 46.8698C116.274 47.2196 117.282 47.6361 118.265 48.119C119.249 48.602 120.124 49.21 120.89 49.9427C121.674 50.6756 122.299 51.5749 122.765 52.6408C123.249 53.6901 123.49 54.9726 123.49 56.4881C123.49 58.137 123.199 59.6859 122.615 61.1349C122.049 62.5673 121.224 63.8248 120.14 64.9073C119.057 65.9733 117.715 66.8143 116.115 67.4305C114.532 68.0468 112.732 68.3549 110.715 68.3549C109.565 68.3549 108.415 68.2383 107.265 68.0051C106.132 67.772 105.032 67.4473 103.965 67.0308C102.915 66.6145 101.924 66.1148 100.99 65.5318C100.057 64.949 99.2403 64.2995 98.5403 63.5832L100.74 60.0357C100.924 59.7692 101.165 59.5528 101.465 59.3861C101.765 59.203 102.082 59.1113 102.415 59.1113C102.865 59.1113 103.34 59.278 103.84 59.611C104.34 59.9441 104.915 60.3105 105.565 60.7102C106.215 61.1099 106.965 61.4764 107.815 61.8094C108.682 62.1426 109.715 62.3091 110.915 62.3091C112.665 62.3091 114.015 61.9094 114.965 61.1099C115.932 60.3105 116.415 59.1197 116.415 57.5374C116.415 56.6214 116.174 55.8803 115.69 55.3139C115.224 54.7477 114.607 54.2731 113.84 53.8899C113.074 53.507 112.199 53.1822 111.215 52.9156C110.232 52.6326 109.224 52.3244 108.19 51.9913C107.157 51.6583 106.149 51.2585 105.165 50.7921C104.182 50.3258 103.307 49.7096 102.54 48.9434C101.774 48.1773 101.149 47.228 100.665 46.0954C100.199 44.9629 99.9653 43.5555 99.9653 41.8733C99.9653 40.5242 100.232 39.2169 100.765 37.951C101.299 36.6853 102.082 35.5611 103.115 34.5784C104.149 33.5958 105.415 32.8046 106.915 32.205C108.432 31.6055 110.165 31.3057 112.115 31.3057C114.299 31.3057 116.315 31.6472 118.165 32.3299C120.032 32.9962 121.607 33.9288 122.89 35.128L121.04 38.6505ZM168.929 31.7054V67.9551H162.304V45.6956C162.304 45.2294 162.313 44.7297 162.329 44.1967C162.363 43.6638 162.413 43.1224 162.479 42.5728L152.104 62.2341C151.538 63.3168 150.663 63.858 149.479 63.858H148.429C147.846 63.858 147.329 63.7249 146.879 63.4583C146.429 63.1752 146.071 62.7671 145.804 62.2341L135.379 42.4979C135.429 43.0808 135.471 43.6471 135.504 44.1967C135.538 44.7297 135.554 45.2294 135.554 45.6956V67.9551H128.929V31.7054H134.629C134.946 31.7054 135.229 31.7138 135.479 31.7304C135.729 31.7471 135.946 31.7971 136.129 31.8803C136.329 31.947 136.504 32.0635 136.654 32.23C136.821 32.3799 136.979 32.5965 137.129 32.8796L147.279 52.2161C147.596 52.7991 147.888 53.3987 148.154 54.0149C148.438 54.6312 148.704 55.264 148.954 55.9135C149.204 55.2474 149.463 54.5978 149.729 53.9649C150.013 53.3321 150.313 52.7241 150.629 52.1412L160.704 32.8796C160.854 32.5965 161.013 32.3799 161.179 32.23C161.345 32.0635 161.52 31.947 161.704 31.8803C161.904 31.7971 162.12 31.7471 162.354 31.7304C162.604 31.7138 162.895 31.7054 163.229 31.7054H168.929ZM38.6616 87.6944C38.8106 87.6944 38.94 87.7531 39.0499 87.8707L40.144 89.0581C39.4538 89.889 38.6068 90.5316 37.6028 90.9862C36.5988 91.4329 35.3988 91.6563 34.0028 91.6563C32.7636 91.6563 31.6421 91.4447 30.6381 91.0215C29.6421 90.5904 28.7911 89.9948 28.0852 89.2345C27.3793 88.4665 26.8341 87.5533 26.4499 86.4952C26.0734 85.4371 25.8852 84.2732 25.8852 83.0035C25.8852 81.7338 26.0852 80.5699 26.4852 79.5118C26.893 78.4459 27.4616 77.5329 28.191 76.7725C28.9283 76.0045 29.8068 75.4088 30.8263 74.9855C31.8538 74.5623 32.9833 74.3507 34.2146 74.3507C35.4381 74.3507 36.5165 74.5506 37.4499 74.9503C38.3911 75.3422 39.2068 75.8673 39.8969 76.5257L38.991 77.8071C38.9283 77.8934 38.8538 77.9679 38.7675 78.0305C38.6812 78.0932 38.5636 78.1245 38.4146 78.1245C38.2577 78.1245 38.0774 78.054 37.8734 77.9129C37.6774 77.7641 37.4224 77.6034 37.1087 77.4309C36.8028 77.2507 36.4146 77.09 35.944 76.9489C35.4812 76.8 34.9009 76.7255 34.2028 76.7255C33.395 76.7255 32.6538 76.8666 31.9793 77.1487C31.3047 77.4309 30.7244 77.8424 30.2381 78.3832C29.7518 78.924 29.3715 79.5823 29.0969 80.3583C28.8303 81.1342 28.6969 82.0159 28.6969 83.0035C28.6969 83.999 28.8381 84.8885 29.1205 85.6722C29.4028 86.4482 29.7911 87.1065 30.2852 87.6473C30.7793 88.1803 31.3597 88.5878 32.0263 88.87C32.693 89.1522 33.4106 89.2932 34.1793 89.2932C34.6499 89.2932 35.0694 89.2697 35.4381 89.2227C35.8146 89.1679 36.1597 89.0856 36.4734 88.9758C36.7871 88.8582 37.0812 88.7133 37.3558 88.5408C37.6381 88.3684 37.9165 88.1568 38.1911 87.906C38.348 87.7649 38.5047 87.6944 38.6616 87.6944ZM58.0949 83.0035C58.0949 84.2576 57.891 85.4136 57.4831 86.4717C57.0753 87.5298 56.4988 88.4429 55.7537 89.2109C55.0165 89.9713 54.1263 90.5669 53.0831 90.9979C52.0478 91.4291 50.8949 91.6445 49.6243 91.6445C48.3616 91.6445 47.2087 91.4291 46.1655 90.9979C45.1302 90.5669 44.24 89.9713 43.4949 89.2109C42.7499 88.4429 42.1734 87.5298 41.7655 86.4717C41.3577 85.4136 41.1537 84.2576 41.1537 83.0035C41.1537 81.7495 41.3577 80.5934 41.7655 79.5353C42.1734 78.4772 42.7499 77.5642 43.4949 76.7961C44.24 76.0281 45.1302 75.4285 46.1655 74.9973C47.2087 74.5663 48.3616 74.3507 49.6243 74.3507C50.8949 74.3507 52.0478 74.5663 53.0831 74.9973C54.1263 75.4285 55.0165 76.0281 55.7537 76.7961C56.4988 77.5642 57.0753 78.4772 57.4831 79.5353C57.891 80.5934 58.0949 81.7495 58.0949 83.0035ZM55.2831 83.0035C55.2831 82.0317 55.1499 81.1577 54.8831 80.3818C54.6243 79.6059 54.2478 78.9475 53.7537 78.4067C53.2675 77.8659 52.6753 77.4506 51.9772 77.1605C51.2793 76.8706 50.4949 76.7255 49.6243 76.7255C48.7616 76.7255 47.9812 76.8706 47.2831 77.1605C46.5852 77.4506 45.989 77.8659 45.4949 78.4067C45.0008 78.9475 44.6205 79.6059 44.3537 80.3818C44.0871 81.1577 43.9537 82.0317 43.9537 83.0035C43.9537 83.9833 44.0871 84.861 44.3537 85.637C44.6205 86.4129 45.0008 87.0713 45.4949 87.6121C45.989 88.1451 46.5852 88.5565 47.2831 88.8465C47.9812 89.1286 48.7616 89.2697 49.6243 89.2697C50.4949 89.2697 51.2793 89.1286 51.9772 88.8465C52.6753 88.5565 53.2675 88.1451 53.7537 87.6121C54.2478 87.0713 54.6243 86.4129 54.8831 85.637C55.1499 84.861 55.2831 83.9833 55.2831 83.0035ZM79.1346 74.5388V91.4682H76.711V79.8645C76.711 79.6764 76.715 79.4727 76.7228 79.2532C76.7386 79.026 76.7581 78.7986 76.7816 78.5713L71.3346 88.6231C71.1228 89.0386 70.7974 89.2462 70.3581 89.2462H69.9699C69.5228 89.2462 69.1974 89.0386 68.9934 88.6231L63.464 78.5478C63.4875 78.7751 63.5033 79.0025 63.511 79.2297C63.5268 79.457 63.5346 79.6686 63.5346 79.8645V91.4682H61.111V74.5388H63.1699C63.4131 74.5388 63.6013 74.5623 63.7346 74.6093C63.868 74.6486 63.9896 74.7779 64.0993 74.9973L69.5346 84.8375C69.6522 85.0649 69.7621 85.3 69.864 85.5429C69.9738 85.778 70.0719 86.0211 70.1581 86.2718C70.2522 86.0211 70.3503 85.7742 70.4522 85.5312C70.5621 85.2804 70.6758 85.0413 70.7934 84.814L76.1464 74.9973C76.2562 74.7779 76.3778 74.6486 76.511 74.6093C76.6444 74.5623 76.8327 74.5388 77.0758 74.5388H79.1346ZM101.17 74.5388V91.4682H98.7469V79.8645C98.7469 79.6764 98.7509 79.4727 98.7587 79.2532C98.7744 79.026 98.794 78.7986 98.8175 78.5713L93.3705 88.6231C93.1587 89.0386 92.8333 89.2462 92.394 89.2462H92.0058C91.5587 89.2462 91.2333 89.0386 91.0293 88.6231L85.4999 78.5478C85.5234 78.7751 85.5391 79.0025 85.5469 79.2297C85.5627 79.457 85.5705 79.6686 85.5705 79.8645V91.4682H83.1469V74.5388H85.2058C85.4489 74.5388 85.6371 74.5623 85.7705 74.6093C85.9038 74.6486 86.0253 74.7779 86.1352 74.9973L91.5705 84.8375C91.6881 85.0649 91.798 85.3 91.8999 85.5429C92.0097 85.778 92.1077 86.0211 92.194 86.2718C92.2881 86.0211 92.3862 85.7742 92.4881 85.5312C92.598 85.2804 92.7116 85.0413 92.8293 84.814L98.1822 74.9973C98.2921 74.7779 98.4135 74.6486 98.5469 74.6093C98.6803 74.5623 98.8686 74.5388 99.1116 74.5388H101.17ZM111.865 89.2462C112.516 89.2462 113.096 89.1366 113.606 88.917C114.124 88.6976 114.559 88.392 114.912 88C115.273 87.6082 115.548 87.138 115.736 86.5892C115.924 86.0329 116.018 85.4176 116.018 84.7435V74.5388H118.759V84.7435C118.759 85.7389 118.598 86.6598 118.277 87.5062C117.963 88.3527 117.508 89.0856 116.912 89.7047C116.316 90.3161 115.591 90.7981 114.736 91.1508C113.889 91.4957 112.932 91.668 111.865 91.668C110.798 91.668 109.838 91.4957 108.983 91.1508C108.136 90.7981 107.414 90.3161 106.818 89.7047C106.222 89.0856 105.763 88.3527 105.442 87.5062C105.128 86.6598 104.971 85.7389 104.971 84.7435V74.5388H107.724V84.7317C107.724 85.4058 107.818 86.0211 108.006 86.5775C108.195 87.1262 108.465 87.6003 108.818 88C109.171 88.392 109.602 88.6976 110.112 88.917C110.63 89.1366 111.214 89.2462 111.865 89.2462ZM136.601 74.5388V91.4682H135.201C134.989 91.4682 134.808 91.4329 134.659 91.3624C134.51 91.2841 134.369 91.1587 134.236 90.9862L124.93 79.0415C124.954 79.2689 124.969 79.4962 124.977 79.7234C124.993 79.943 125.001 80.1467 125.001 80.3348V91.4682H122.577V74.5388H124.012C124.13 74.5388 124.228 74.5467 124.306 74.5623C124.393 74.5703 124.471 74.5898 124.542 74.6211C124.612 74.6525 124.679 74.6996 124.742 74.7622C124.805 74.8249 124.871 74.9033 124.942 74.9973L134.259 86.9537C134.236 86.7108 134.216 86.4717 134.201 86.2365C134.193 86.0014 134.189 85.782 134.189 85.5782V74.5388H136.601ZM143.403 91.4682H140.638V74.5388H143.403V91.4682ZM159.075 76.8313H153.793V91.4682H151.051V76.8313H145.757V74.5388H159.075V76.8313ZM168.279 84.8375V91.4682H165.538V84.8375L159.35 74.5388H161.762C162.006 74.5388 162.197 74.5976 162.338 74.7151C162.479 74.8327 162.597 74.9817 162.691 75.1619L166.162 81.2283C166.319 81.5339 166.46 81.824 166.585 82.0982C166.719 82.3726 166.837 82.643 166.938 82.9094C167.025 82.6352 167.131 82.3648 167.256 82.0982C167.382 81.824 167.523 81.5339 167.679 81.2283L171.126 75.1619C171.206 75.0052 171.319 74.8642 171.468 74.7387C171.618 74.6055 171.809 74.5388 172.044 74.5388H174.468L168.279 84.8375ZM35.7558 100.944C35.6694 101.085 35.5793 101.191 35.4852 101.261C35.391 101.324 35.2734 101.355 35.1322 101.355C34.9833 101.355 34.8146 101.293 34.6263 101.167C34.4459 101.042 34.2185 100.905 33.944 100.756C33.6774 100.599 33.3597 100.458 32.991 100.333C32.6224 100.199 32.1833 100.133 31.6734 100.133C31.2028 100.133 30.7871 100.192 30.4263 100.309C30.0734 100.427 29.7753 100.591 29.5322 100.803C29.2891 101.014 29.1047 101.265 28.9793 101.555C28.8616 101.837 28.8028 102.147 28.8028 102.484C28.8028 102.915 28.9165 103.276 29.144 103.566C29.3715 103.848 29.6694 104.091 30.0381 104.295C30.4146 104.498 30.8421 104.679 31.3205 104.835C31.7988 104.984 32.2852 105.145 32.7793 105.317C33.2812 105.49 33.7715 105.686 34.2499 105.905C34.7283 106.125 35.1518 106.403 35.5205 106.74C35.8969 107.077 36.1988 107.489 36.4263 107.974C36.6538 108.46 36.7675 109.052 36.7675 109.75C36.7675 110.502 36.6381 111.207 36.3793 111.866C36.1205 112.524 35.744 113.1 35.2499 113.594C34.7636 114.08 34.1597 114.464 33.4381 114.746C32.7244 115.028 31.9087 115.169 30.9911 115.169C30.4499 115.169 29.9205 115.115 29.4028 115.005C28.893 114.903 28.4028 114.758 27.9322 114.57C27.4694 114.374 27.0341 114.139 26.6263 113.864C26.2185 113.59 25.8538 113.284 25.5322 112.947L26.3322 111.631C26.4028 111.521 26.493 111.435 26.6028 111.372C26.7127 111.309 26.8341 111.278 26.9675 111.278C27.148 111.278 27.348 111.364 27.5675 111.537C27.7871 111.701 28.0499 111.885 28.3558 112.089C28.6694 112.285 29.0459 112.469 29.4852 112.642C29.9244 112.806 30.4499 112.889 31.0616 112.889C32.0577 112.889 32.8263 112.646 33.3675 112.16C33.9165 111.674 34.191 111.004 34.191 110.149C34.191 109.671 34.0774 109.283 33.8499 108.985C33.6224 108.68 33.3205 108.425 32.944 108.221C32.5753 108.018 32.1518 107.845 31.6734 107.704C31.195 107.563 30.7087 107.414 30.2146 107.257C29.7205 107.093 29.2341 106.905 28.7558 106.693C28.2774 106.473 27.8499 106.191 27.4734 105.846C27.1047 105.494 26.8068 105.063 26.5793 104.553C26.3518 104.036 26.2381 103.393 26.2381 102.625C26.2381 102.014 26.3558 101.422 26.591 100.85C26.8341 100.278 27.1833 99.7723 27.6381 99.3333C28.1009 98.8866 28.6694 98.53 29.344 98.2635C30.0185 97.997 30.7871 97.8637 31.6499 97.8637C32.6224 97.8637 33.5127 98.0166 34.3205 98.3222C35.1362 98.6279 35.8381 99.0629 36.4263 99.6272L35.7558 100.944ZM51.5063 111.207C51.6553 111.207 51.7847 111.266 51.8946 111.384L52.9887 112.571C52.2984 113.402 51.4513 114.045 50.4475 114.499C49.4436 114.946 48.2436 115.169 46.8475 115.169C45.6083 115.169 44.4866 114.958 43.4828 114.534C42.4866 114.103 41.6358 113.508 40.9299 112.747C40.224 111.979 39.6788 111.066 39.2946 110.008C38.9181 108.95 38.7299 107.786 38.7299 106.517C38.7299 105.247 38.9299 104.083 39.3299 103.025C39.7377 101.959 40.3063 101.046 41.0358 100.286C41.773 99.5176 42.6513 98.9218 43.6711 98.4986C44.6984 98.0754 45.8278 97.8637 47.0593 97.8637C48.2828 97.8637 49.3612 98.0636 50.2946 98.4633C51.2358 98.8553 52.0513 99.3803 52.7416 100.039L51.8358 101.32C51.773 101.406 51.6984 101.481 51.6122 101.544C51.5259 101.606 51.4083 101.638 51.2593 101.638C51.1024 101.638 50.9219 101.567 50.7181 101.426C50.5219 101.277 50.2671 101.116 49.9534 100.944C49.6475 100.764 49.2593 100.603 48.7887 100.462C48.3259 100.313 47.7455 100.239 47.0475 100.239C46.2396 100.239 45.4984 100.38 44.824 100.662C44.1494 100.944 43.569 101.355 43.0828 101.896C42.5965 102.437 42.2161 103.095 41.9416 103.871C41.6749 104.647 41.5416 105.529 41.5416 106.517C41.5416 107.512 41.6828 108.402 41.9652 109.185C42.2475 109.961 42.6358 110.62 43.1299 111.16C43.624 111.693 44.2043 112.101 44.8711 112.383C45.5377 112.665 46.2553 112.806 47.024 112.806C47.4946 112.806 47.9141 112.783 48.2828 112.736C48.6593 112.681 49.0043 112.599 49.3181 112.489C49.6318 112.371 49.9259 112.226 50.2005 112.054C50.4828 111.881 50.7612 111.67 51.0358 111.419C51.1925 111.278 51.3494 111.207 51.5063 111.207ZM58.1313 114.981H55.3666V98.0518H58.1313V114.981ZM72.7216 112.759L72.7099 114.981H62.1452V98.0518H72.7099V100.274H64.9099V105.376H71.1452V107.528H64.9099V112.759H72.7216ZM89.7256 98.0518V114.981H88.3256C88.1138 114.981 87.9334 114.946 87.7844 114.875C87.6355 114.797 87.4943 114.672 87.3609 114.499L78.055 102.555C78.0786 102.782 78.0943 103.009 78.1021 103.236C78.1178 103.456 78.1256 103.66 78.1256 103.848V114.981H75.7021V98.0518H77.1374C77.255 98.0518 77.3531 98.0598 77.4315 98.0753C77.5178 98.0833 77.5962 98.1028 77.6668 98.1341C77.7374 98.1656 77.804 98.2126 77.8668 98.2752C77.9296 98.338 77.9962 98.4163 78.0668 98.5103L87.3844 110.467C87.3609 110.224 87.3414 109.985 87.3256 109.75C87.3178 109.514 87.3138 109.295 87.3138 109.091V98.0518H89.7256ZM105.528 111.207C105.676 111.207 105.806 111.266 105.916 111.384L107.01 112.571C106.32 113.402 105.473 114.045 104.469 114.499C103.465 114.946 102.265 115.169 100.869 115.169C99.6294 115.169 98.5078 114.958 97.504 114.534C96.5078 114.103 95.6569 113.508 94.951 112.747C94.2452 111.979 93.7 111.066 93.3158 110.008C92.9393 108.95 92.7511 107.786 92.7511 106.517C92.7511 105.247 92.951 104.083 93.3511 103.025C93.7588 101.959 94.3275 101.046 95.0569 100.286C95.7941 99.5176 96.6725 98.9218 97.6921 98.4986C98.7196 98.0754 99.849 97.8637 101.08 97.8637C102.304 97.8637 103.382 98.0636 104.316 98.4633C105.257 98.8553 106.073 99.3803 106.763 100.039L105.857 101.32C105.794 101.406 105.72 101.481 105.633 101.544C105.547 101.606 105.429 101.638 105.28 101.638C105.124 101.638 104.943 101.567 104.739 101.426C104.543 101.277 104.288 101.116 103.975 100.944C103.669 100.764 103.28 100.603 102.81 100.462C102.347 100.313 101.767 100.239 101.069 100.239C100.261 100.239 99.5196 100.38 98.8452 100.662C98.1706 100.944 97.5902 101.355 97.104 101.896C96.6177 102.437 96.2372 103.095 95.9628 103.871C95.6961 104.647 95.5628 105.529 95.5628 106.517C95.5628 107.512 95.704 108.402 95.9863 109.185C96.2687 109.961 96.6569 110.62 97.1511 111.16C97.6452 111.693 98.2255 112.101 98.8922 112.383C99.5588 112.665 100.276 112.806 101.045 112.806C101.516 112.806 101.935 112.783 102.304 112.736C102.68 112.681 103.025 112.599 103.339 112.489C103.653 112.371 103.947 112.226 104.222 112.054C104.504 111.881 104.782 111.67 105.057 111.419C105.214 111.278 105.371 111.207 105.528 111.207ZM119.964 112.759L119.953 114.981H109.388V98.0518H119.953V100.274H112.153V105.376H118.388V107.528H112.153V112.759H119.964ZM44.9205 121.565V138.494H42.4969V126.891C42.4969 126.702 42.5009 126.499 42.5087 126.279C42.5244 126.052 42.544 125.825 42.5675 125.597L37.1205 135.649C36.9087 136.065 36.5833 136.272 36.144 136.272H35.7558C35.3087 136.272 34.9833 136.065 34.7793 135.649L29.2499 125.574C29.2734 125.801 29.2891 126.029 29.2969 126.256C29.3127 126.483 29.3205 126.695 29.3205 126.891V138.494H26.8969V121.565H28.9558C29.1988 121.565 29.3871 121.588 29.5205 121.635C29.6538 121.675 29.7753 121.804 29.8852 122.023L35.3205 131.864C35.4381 132.091 35.548 132.326 35.6499 132.569C35.7597 132.804 35.8577 133.047 35.944 133.298C36.0381 133.047 36.1362 132.8 36.2381 132.557C36.348 132.307 36.4616 132.067 36.5793 131.84L41.9322 122.023C42.0421 121.804 42.1635 121.675 42.2969 121.635C42.4303 121.588 42.6186 121.565 42.8616 121.565H44.9205ZM55.6152 136.272C56.2661 136.272 56.8465 136.163 57.3563 135.943C57.874 135.724 58.3093 135.418 58.6622 135.026C59.023 134.634 59.2975 134.164 59.4858 133.615C59.674 133.059 59.7681 132.444 59.7681 131.77V121.565H62.5093V131.77C62.5093 132.765 62.3484 133.686 62.0269 134.532C61.7131 135.379 61.2583 136.112 60.6622 136.731C60.0661 137.342 59.3406 137.824 58.4858 138.177C57.6387 138.522 56.6818 138.694 55.6152 138.694C54.5484 138.694 53.5877 138.522 52.7328 138.177C51.8858 137.824 51.1641 137.342 50.5681 136.731C49.9719 136.112 49.5131 135.379 49.1916 134.532C48.8778 133.686 48.7211 132.765 48.7211 131.77V121.565H51.474V131.758C51.474 132.432 51.5681 133.047 51.7563 133.604C51.9446 134.152 52.2152 134.626 52.5681 135.026C52.9211 135.418 53.3524 135.724 53.8622 135.943C54.3799 136.163 54.9641 136.272 55.6152 136.272ZM75.1859 124.457C75.0996 124.598 75.0094 124.704 74.9153 124.774C74.8212 124.837 74.7036 124.868 74.5624 124.868C74.4134 124.868 74.2447 124.806 74.0565 124.68C73.876 124.555 73.6487 124.418 73.3741 124.269C73.1075 124.112 72.7899 123.971 72.4212 123.846C72.0525 123.713 71.6134 123.646 71.1036 123.646C70.633 123.646 70.2172 123.705 69.8565 123.822C69.5036 123.94 69.2055 124.104 68.9624 124.316C68.7193 124.528 68.5349 124.778 68.4094 125.068C68.2918 125.35 68.233 125.66 68.233 125.997C68.233 126.428 68.3466 126.789 68.5741 127.079C68.8016 127.361 69.0996 127.604 69.4683 127.808C69.8447 128.011 70.2722 128.192 70.7506 128.348C71.229 128.497 71.7153 128.658 72.2094 128.83C72.7113 129.003 73.2016 129.199 73.68 129.418C74.1584 129.638 74.5819 129.916 74.9506 130.253C75.3271 130.59 75.629 131.002 75.8565 131.487C76.084 131.973 76.1977 132.565 76.1977 133.263C76.1977 134.015 76.0683 134.72 75.8094 135.379C75.5506 136.037 75.1741 136.613 74.68 137.107C74.1937 137.593 73.5899 137.977 72.8683 138.259C72.1546 138.541 71.3388 138.682 70.4212 138.682C69.88 138.682 69.3506 138.628 68.833 138.518C68.3231 138.416 67.833 138.271 67.3624 138.083C66.8996 137.887 66.4643 137.652 66.0565 137.377C65.6487 137.103 65.284 136.798 64.9624 136.46L65.7624 135.144C65.833 135.034 65.9231 134.948 66.033 134.885C66.1428 134.822 66.2643 134.791 66.3977 134.791C66.5781 134.791 66.7781 134.877 66.9977 135.05C67.2172 135.214 67.48 135.398 67.7859 135.602C68.0996 135.798 68.476 135.982 68.9153 136.155C69.3546 136.319 69.88 136.402 70.4918 136.402C71.4878 136.402 72.2565 136.159 72.7977 135.673C73.3466 135.187 73.6212 134.517 73.6212 133.662C73.6212 133.184 73.5075 132.796 73.28 132.498C73.0525 132.193 72.7506 131.938 72.3741 131.734C72.0055 131.531 71.5819 131.358 71.1036 131.217C70.6252 131.076 70.1388 130.927 69.6447 130.77C69.1506 130.606 68.6643 130.418 68.1859 130.206C67.7075 129.987 67.28 129.704 66.9035 129.359C66.5349 129.007 66.2369 128.576 66.0094 128.066C65.7819 127.549 65.6683 126.906 65.6683 126.138C65.6683 125.527 65.7859 124.935 66.0212 124.363C66.2643 123.791 66.6134 123.285 67.0683 122.846C67.5311 122.4 68.0996 122.043 68.7741 121.776C69.4487 121.51 70.2172 121.377 71.08 121.377C72.0525 121.377 72.9428 121.53 73.7506 121.835C74.5663 122.141 75.2683 122.576 75.8565 123.14L75.1859 124.457ZM89.7483 136.272L89.7365 138.494H79.1718V121.565H89.7365V123.787H81.9365V128.889H88.1718V131.041H81.9365V136.272H89.7483ZM99.411 136.272C100.062 136.272 100.643 136.163 101.152 135.943C101.67 135.724 102.105 135.418 102.458 135.026C102.819 134.634 103.093 134.164 103.282 133.615C103.47 133.059 103.564 132.444 103.564 131.77V121.565H106.305V131.77C106.305 132.765 106.144 133.686 105.823 134.532C105.509 135.379 105.054 136.112 104.458 136.731C103.862 137.342 103.137 137.824 102.282 138.177C101.435 138.522 100.478 138.694 99.411 138.694C98.3444 138.694 97.3837 138.522 96.5287 138.177C95.6816 137.824 94.9602 137.342 94.364 136.731C93.768 136.112 93.3091 135.379 92.9875 134.532C92.6739 133.686 92.5169 132.765 92.5169 131.77V121.565H95.2699V131.758C95.2699 132.432 95.364 133.047 95.5522 133.604C95.7405 134.152 96.011 134.626 96.364 135.026C96.7169 135.418 97.1484 135.724 97.6581 135.943C98.1758 136.163 98.7602 136.272 99.411 136.272ZM128.147 121.565V138.494H125.723V126.891C125.723 126.702 125.727 126.499 125.735 126.279C125.75 126.052 125.77 125.825 125.794 125.597L120.347 135.649C120.135 136.065 119.809 136.272 119.37 136.272H118.982C118.535 136.272 118.209 136.065 118.005 135.649L112.476 125.574C112.5 125.801 112.515 126.029 112.523 126.256C112.539 126.483 112.547 126.695 112.547 126.891V138.494H110.123V121.565H112.182C112.425 121.565 112.613 121.588 112.747 121.635C112.88 121.675 113.001 121.804 113.111 122.023L118.547 131.864C118.664 132.091 118.774 132.326 118.876 132.569C118.986 132.804 119.084 133.047 119.17 133.298C119.264 133.047 119.362 132.8 119.464 132.557C119.574 132.307 119.688 132.067 119.805 131.84L125.158 122.023C125.268 121.804 125.39 121.675 125.523 121.635C125.656 121.588 125.845 121.565 126.088 121.565H128.147Z" fill="#FEFEFE"/>
</svg>
