<svg width="136" height="115" viewBox="0 0 136 115" fill="none" xmlns="http://www.w3.org/2000/svg">
<path d="M35.38 40.2176C35.6633 40.2176 35.9013 40.3196 36.094 40.5236L38.117 42.6826C37.1197 43.952 35.8787 44.9153 34.394 45.5726C32.9207 46.23 31.164 46.5586 29.124 46.5586C27.2767 46.5586 25.6163 46.247 24.143 45.6236C22.6697 44.989 21.4173 44.1106 20.386 42.9886C19.3547 41.8666 18.5613 40.535 18.006 38.9936C17.4507 37.4523 17.173 35.7693 17.173 33.9446C17.173 32.7206 17.3033 31.559 17.564 30.4596C17.836 29.349 18.227 28.329 18.737 27.3996C19.247 26.4703 19.859 25.6316 20.573 24.8836C21.2983 24.1356 22.1143 23.501 23.021 22.9796C23.9277 22.447 24.9137 22.0446 25.979 21.7726C27.0557 21.4893 28.2003 21.3476 29.413 21.3476C30.3197 21.3476 31.1753 21.427 31.98 21.5856C32.796 21.7443 33.5553 21.9653 34.258 22.2486C34.9607 22.532 35.6067 22.8776 36.196 23.2856C36.7967 23.6823 37.335 24.1186 37.811 24.5946L36.094 26.9406C35.992 27.088 35.8617 27.2183 35.703 27.3316C35.5443 27.445 35.329 27.5016 35.057 27.5016C34.785 27.5016 34.5073 27.4053 34.224 27.2126C33.952 27.02 33.612 26.8046 33.204 26.5666C32.8073 26.3286 32.303 26.1133 31.691 25.9206C31.0903 25.728 30.3253 25.6316 29.396 25.6316C28.3647 25.6316 27.4183 25.8186 26.557 26.1926C25.6957 26.5666 24.9533 27.1106 24.33 27.8246C23.718 28.5273 23.242 29.3943 22.902 30.4256C22.562 31.457 22.392 32.63 22.392 33.9446C22.392 35.2706 22.5733 36.455 22.936 37.4976C23.31 38.529 23.8143 39.4016 24.449 40.1156C25.095 40.8296 25.843 41.3736 26.693 41.7476C27.5543 42.1103 28.4723 42.2916 29.447 42.2916C30.025 42.2916 30.5463 42.2633 31.011 42.2066C31.487 42.15 31.9233 42.0536 32.32 41.9176C32.728 41.7816 33.1077 41.606 33.459 41.3906C33.8217 41.1753 34.1843 40.9033 34.547 40.5746C34.6717 40.4726 34.802 40.3876 34.938 40.3196C35.074 40.2516 35.2213 40.2176 35.38 40.2176ZM64.2989 33.9446C64.2989 35.7466 63.9929 37.4183 63.3809 38.9596C62.7802 40.501 61.9245 41.8326 60.8139 42.9546C59.7145 44.0766 58.3885 44.9606 56.8359 45.6066C55.2832 46.2413 53.5605 46.5586 51.6679 46.5586C49.7752 46.5586 48.0525 46.2413 46.4999 45.6066C44.9472 44.9606 43.6155 44.0766 42.5049 42.9546C41.3942 41.8326 40.5329 40.501 39.9209 38.9596C39.3202 37.4183 39.0199 35.7466 39.0199 33.9446C39.0199 32.1426 39.3202 30.4766 39.9209 28.9466C40.5329 27.4053 41.3942 26.0736 42.5049 24.9516C43.6155 23.8296 44.9472 22.9513 46.4999 22.3166C48.0525 21.6706 49.7752 21.3476 51.6679 21.3476C53.5605 21.3476 55.2832 21.6706 56.8359 22.3166C58.3885 22.9513 59.7145 23.8353 60.8139 24.9686C61.9245 26.0906 62.7802 27.4223 63.3809 28.9636C63.9929 30.4936 64.2989 32.154 64.2989 33.9446ZM59.0799 33.9446C59.0799 32.6526 58.9099 31.4966 58.5699 30.4766C58.2299 29.4453 57.7369 28.5726 57.0909 27.8586C56.4562 27.1333 55.6799 26.5836 54.7619 26.2096C53.8552 25.8243 52.8239 25.6316 51.6679 25.6316C50.5119 25.6316 49.4749 25.8243 48.5569 26.2096C47.6389 26.5836 46.8569 27.1333 46.2109 27.8586C45.5762 28.5726 45.0889 29.4453 44.7489 30.4766C44.4089 31.4966 44.2389 32.6526 44.2389 33.9446C44.2389 35.248 44.4089 36.4153 44.7489 37.4466C45.0889 38.4666 45.5762 39.3336 46.2109 40.0476C46.8569 40.7616 47.6389 41.3113 48.5569 41.6966C49.4749 42.0706 50.5119 42.2576 51.6679 42.2576C52.8239 42.2576 53.8552 42.0706 54.7619 41.6966C55.6799 41.3113 56.4562 40.7616 57.0909 40.0476C57.7369 39.3336 58.2299 38.4666 58.5699 37.4466C58.9099 36.4153 59.0799 35.248 59.0799 33.9446ZM81.3855 26.3456C81.2268 26.6063 81.0625 26.799 80.8925 26.9236C80.7338 27.037 80.5241 27.0936 80.2635 27.0936C80.0141 27.0936 79.7421 27.0086 79.4475 26.8386C79.1641 26.6573 78.8298 26.4646 78.4445 26.2606C78.0591 26.0566 77.6171 25.8696 77.1185 25.6996C76.6198 25.5183 76.0361 25.4276 75.3675 25.4276C74.1888 25.4276 73.3048 25.694 72.7155 26.2266C72.1261 26.748 71.8315 27.4336 71.8315 28.2836C71.8315 28.8276 71.9901 29.281 72.3075 29.6436C72.6361 29.995 73.0611 30.301 73.5825 30.5616C74.1151 30.8223 74.7158 31.0546 75.3845 31.2586C76.0531 31.4626 76.7388 31.6893 77.4415 31.9386C78.1441 32.1766 78.8298 32.46 79.4985 32.7886C80.1671 33.1173 80.7621 33.531 81.2835 34.0296C81.8161 34.5283 82.2411 35.1403 82.5585 35.8656C82.8871 36.5796 83.0515 37.4523 83.0515 38.4836C83.0515 39.6056 82.8531 40.6596 82.4565 41.6456C82.0711 42.6203 81.5101 43.476 80.7735 44.2126C80.0368 44.938 79.1245 45.5103 78.0365 45.9296C76.9598 46.349 75.7358 46.5586 74.3645 46.5586C73.5825 46.5586 72.8005 46.4793 72.0185 46.3206C71.2478 46.162 70.4998 45.941 69.7745 45.6576C69.0605 45.3743 68.3861 45.0343 67.7515 44.6376C67.1168 44.241 66.5615 43.799 66.0855 43.3116L67.5815 40.8976C67.7061 40.7163 67.8705 40.569 68.0745 40.4556C68.2785 40.331 68.4938 40.2686 68.7205 40.2686C69.0265 40.2686 69.3495 40.382 69.6895 40.6086C70.0295 40.8353 70.4205 41.0846 70.8625 41.3566C71.3045 41.6286 71.8145 41.878 72.3925 42.1046C72.9818 42.3313 73.6845 42.4446 74.5005 42.4446C75.6905 42.4446 76.6085 42.1726 77.2545 41.6286C77.9118 41.0846 78.2405 40.2743 78.2405 39.1976C78.2405 38.5743 78.0761 38.07 77.7475 37.6846C77.4301 37.2993 77.0108 36.9763 76.4895 36.7156C75.9681 36.455 75.3731 36.234 74.7045 36.0526C74.0358 35.86 73.3501 35.6503 72.6475 35.4236C71.9448 35.197 71.2591 34.925 70.5905 34.6076C69.9218 34.2903 69.3268 33.871 68.8055 33.3496C68.2841 32.8283 67.8591 32.1823 67.5305 31.4116C67.2131 30.641 67.0545 29.6833 67.0545 28.5386C67.0545 27.6206 67.2358 26.731 67.5985 25.8696C67.9611 25.0083 68.4938 24.2433 69.1965 23.5746C69.8991 22.906 70.7605 22.3676 71.7805 21.9596C72.8118 21.5516 73.9905 21.3476 75.3165 21.3476C76.8011 21.3476 78.1725 21.58 79.4305 22.0446C80.6998 22.498 81.7708 23.1326 82.6435 23.9486L81.3855 26.3456ZM113.95 21.6196V46.2866H109.445V31.1396C109.445 30.8223 109.451 30.4823 109.462 30.1196C109.485 29.757 109.519 29.3886 109.564 29.0146L102.509 42.3936C102.124 43.1303 101.529 43.4986 100.724 43.4986H100.01C99.6133 43.4986 99.262 43.408 98.956 43.2266C98.65 43.034 98.4063 42.7563 98.225 42.3936L91.136 28.9636C91.17 29.3603 91.1983 29.7456 91.221 30.1196C91.2437 30.4823 91.255 30.8223 91.255 31.1396V46.2866H86.75V21.6196H90.626C90.8413 21.6196 91.034 21.6253 91.204 21.6366C91.374 21.648 91.5213 21.682 91.646 21.7386C91.782 21.784 91.901 21.8633 92.003 21.9766C92.1163 22.0786 92.224 22.226 92.326 22.4186L99.228 35.5766C99.4433 35.9733 99.6417 36.3813 99.823 36.8006C100.016 37.22 100.197 37.6506 100.367 38.0926C100.537 37.6393 100.713 37.1973 100.894 36.7666C101.087 36.336 101.291 35.9223 101.506 35.5256L108.357 22.4186C108.459 22.226 108.567 22.0786 108.68 21.9766C108.793 21.8633 108.912 21.784 109.037 21.7386C109.173 21.682 109.32 21.648 109.479 21.6366C109.649 21.6253 109.847 21.6196 110.074 21.6196H113.95ZM25.368 59.7186C25.4693 59.7186 25.5573 59.7586 25.632 59.8386L26.376 60.6466C25.9067 61.212 25.3307 61.6493 24.648 61.9586C23.9653 62.2626 23.1493 62.4146 22.2 62.4146C21.3573 62.4146 20.5947 62.2706 19.912 61.9826C19.2347 61.6893 18.656 61.284 18.176 60.7666C17.696 60.244 17.3253 59.6226 17.064 58.9026C16.808 58.1826 16.68 57.3906 16.68 56.5266C16.68 55.6626 16.816 54.8706 17.088 54.1506C17.3653 53.4253 17.752 52.804 18.248 52.2866C18.7493 51.764 19.3467 51.3586 20.04 51.0706C20.7387 50.7826 21.5067 50.6386 22.344 50.6386C23.176 50.6386 23.9093 50.7746 24.544 51.0466C25.184 51.3133 25.7387 51.6706 26.208 52.1186L25.592 52.9906C25.5493 53.0493 25.4987 53.1 25.44 53.1426C25.3813 53.1853 25.3013 53.2066 25.2 53.2066C25.0933 53.2066 24.9707 53.1586 24.832 53.0626C24.6987 52.9613 24.5253 52.852 24.312 52.7346C24.104 52.612 23.84 52.5026 23.52 52.4066C23.2053 52.3053 22.8107 52.2546 22.336 52.2546C21.7867 52.2546 21.2827 52.3506 20.824 52.5426C20.3653 52.7346 19.9707 53.0146 19.64 53.3826C19.3093 53.7506 19.0507 54.1986 18.864 54.7266C18.6827 55.2546 18.592 55.8546 18.592 56.5266C18.592 57.204 18.688 57.8093 18.88 58.3426C19.072 58.8706 19.336 59.3186 19.672 59.6866C20.008 60.0493 20.4027 60.3266 20.856 60.5186C21.3093 60.7106 21.7973 60.8066 22.32 60.8066C22.64 60.8066 22.9253 60.7906 23.176 60.7586C23.432 60.7213 23.6667 60.6653 23.88 60.5906C24.0933 60.5106 24.2933 60.412 24.48 60.2946C24.672 60.1773 24.8613 60.0333 25.048 59.8626C25.1547 59.7666 25.2613 59.7186 25.368 59.7186ZM38.5826 56.5266C38.5826 57.38 38.444 58.1666 38.1666 58.8866C37.8893 59.6066 37.4973 60.228 36.9906 60.7506C36.4893 61.268 35.884 61.6733 35.1746 61.9666C34.4706 62.26 33.6866 62.4066 32.8226 62.4066C31.964 62.4066 31.18 62.26 30.4706 61.9666C29.7666 61.6733 29.1613 61.268 28.6546 60.7506C28.148 60.228 27.756 59.6066 27.4786 58.8866C27.2013 58.1666 27.0626 57.38 27.0626 56.5266C27.0626 55.6733 27.2013 54.8866 27.4786 54.1666C27.756 53.4466 28.148 52.8253 28.6546 52.3026C29.1613 51.78 29.7666 51.372 30.4706 51.0786C31.18 50.7853 31.964 50.6386 32.8226 50.6386C33.6866 50.6386 34.4706 50.7853 35.1746 51.0786C35.884 51.372 36.4893 51.78 36.9906 52.3026C37.4973 52.8253 37.8893 53.4466 38.1666 54.1666C38.444 54.8866 38.5826 55.6733 38.5826 56.5266ZM36.6706 56.5266C36.6706 55.8653 36.58 55.2706 36.3986 54.7426C36.2226 54.2146 35.9666 53.7666 35.6306 53.3986C35.3 53.0306 34.8973 52.748 34.4226 52.5506C33.948 52.3533 33.4146 52.2546 32.8226 52.2546C32.236 52.2546 31.7053 52.3533 31.2306 52.5506C30.756 52.748 30.3506 53.0306 30.0146 53.3986C29.6786 53.7666 29.42 54.2146 29.2386 54.7426C29.0573 55.2706 28.9666 55.8653 28.9666 56.5266C28.9666 57.1933 29.0573 57.7906 29.2386 58.3186C29.42 58.8466 29.6786 59.2946 30.0146 59.6626C30.3506 60.0253 30.756 60.3053 31.2306 60.5026C31.7053 60.6946 32.236 60.7906 32.8226 60.7906C33.4146 60.7906 33.948 60.6946 34.4226 60.5026C34.8973 60.3053 35.3 60.0253 35.6306 59.6626C35.9666 59.2946 36.2226 58.8466 36.3986 58.3186C36.58 57.7906 36.6706 57.1933 36.6706 56.5266ZM52.8896 50.7666V62.2866H51.2416V54.3906C51.2416 54.2626 51.2443 54.124 51.2496 53.9746C51.2603 53.82 51.2736 53.6653 51.2896 53.5106L47.5856 60.3506C47.4416 60.6333 47.2203 60.7746 46.9216 60.7746H46.6576C46.3536 60.7746 46.1323 60.6333 45.9936 60.3506L42.2336 53.4946C42.2496 53.6493 42.2603 53.804 42.2656 53.9586C42.2763 54.1133 42.2816 54.2573 42.2816 54.3906V62.2866H40.6336V50.7666H42.0336C42.199 50.7666 42.327 50.7826 42.4176 50.8146C42.5083 50.8413 42.591 50.9293 42.6656 51.0786L46.3616 57.7746C46.4416 57.9293 46.5163 58.0893 46.5856 58.2546C46.6603 58.4146 46.727 58.58 46.7856 58.7506C46.8496 58.58 46.9163 58.412 46.9856 58.2466C47.0603 58.076 47.1376 57.9133 47.2176 57.7586L50.8576 51.0786C50.9323 50.9293 51.015 50.8413 51.1056 50.8146C51.1963 50.7826 51.3243 50.7666 51.4896 50.7666H52.8896ZM67.874 50.7666V62.2866H66.226V54.3906C66.226 54.2626 66.2287 54.124 66.234 53.9746C66.2447 53.82 66.258 53.6653 66.274 53.5106L62.57 60.3506C62.426 60.6333 62.2047 60.7746 61.906 60.7746H61.642C61.338 60.7746 61.1167 60.6333 60.978 60.3506L57.218 53.4946C57.234 53.6493 57.2447 53.804 57.25 53.9586C57.2607 54.1133 57.266 54.2573 57.266 54.3906V62.2866H55.618V50.7666H57.018C57.1833 50.7666 57.3113 50.7826 57.402 50.8146C57.4927 50.8413 57.5753 50.9293 57.65 51.0786L61.346 57.7746C61.426 57.9293 61.5007 58.0893 61.57 58.2546C61.6447 58.4146 61.7113 58.58 61.77 58.7506C61.834 58.58 61.9007 58.412 61.97 58.2466C62.0447 58.076 62.122 57.9133 62.202 57.7586L65.842 51.0786C65.9167 50.9293 65.9993 50.8413 66.09 50.8146C66.1807 50.7826 66.3087 50.7666 66.474 50.7666H67.874ZM75.1464 60.7746C75.589 60.7746 75.9837 60.7 76.3304 60.5506C76.6824 60.4013 76.9784 60.1933 77.2184 59.9266C77.4637 59.66 77.6504 59.34 77.7784 58.9666C77.9064 58.588 77.9704 58.1693 77.9704 57.7106V50.7666H79.8344V57.7106C79.8344 58.388 79.725 59.0146 79.5064 59.5906C79.293 60.1666 78.9837 60.6653 78.5784 61.0866C78.173 61.5026 77.6797 61.8306 77.0984 62.0706C76.5224 62.3053 75.8717 62.4226 75.1464 62.4226C74.421 62.4226 73.7677 62.3053 73.1864 62.0706C72.6104 61.8306 72.1197 61.5026 71.7144 61.0866C71.309 60.6653 70.997 60.1666 70.7784 59.5906C70.565 59.0146 70.4584 58.388 70.4584 57.7106V50.7666H72.3304V57.7026C72.3304 58.1613 72.3944 58.58 72.5224 58.9586C72.6504 59.332 72.8344 59.6546 73.0744 59.9266C73.3144 60.1933 73.6077 60.4013 73.9544 60.5506C74.3064 60.7 74.7037 60.7746 75.1464 60.7746ZM91.9665 50.7666V62.2866H91.0145C90.8705 62.2866 90.7478 62.2626 90.6465 62.2146C90.5452 62.1613 90.4492 62.076 90.3585 61.9586L84.0305 53.8306C84.0465 53.9853 84.0572 54.14 84.0625 54.2946C84.0732 54.444 84.0785 54.5826 84.0785 54.7106V62.2866H82.4305V50.7666H83.4065C83.4865 50.7666 83.5532 50.772 83.6065 50.7826C83.6652 50.788 83.7185 50.8013 83.7665 50.8226C83.8145 50.844 83.8598 50.876 83.9025 50.9186C83.9452 50.9613 83.9905 51.0146 84.0385 51.0786L90.3745 59.2146C90.3585 59.0493 90.3452 58.8866 90.3345 58.7266C90.3292 58.5666 90.3265 58.4173 90.3265 58.2786V50.7666H91.9665ZM96.5918 62.2866H94.7118V50.7666H96.5918V62.2866ZM107.249 52.3266H103.657V62.2866H101.793V52.3266H98.1931V50.7666H107.249V52.3266ZM113.508 57.7746V62.2866H111.644V57.7746L107.436 50.7666H109.076C109.242 50.7666 109.372 50.8066 109.468 50.8866C109.564 50.9666 109.644 51.068 109.708 51.1906L112.068 55.3186C112.175 55.5266 112.271 55.724 112.356 55.9106C112.447 56.0973 112.527 56.2813 112.596 56.4626C112.655 56.276 112.727 56.092 112.812 55.9106C112.898 55.724 112.994 55.5266 113.1 55.3186L115.444 51.1906C115.498 51.084 115.575 50.988 115.676 50.9026C115.778 50.812 115.908 50.7666 116.068 50.7666H117.716L113.508 57.7746ZM23.392 68.7346C23.3333 68.8306 23.272 68.9026 23.208 68.9506C23.144 68.9933 23.064 69.0146 22.968 69.0146C22.8667 69.0146 22.752 68.972 22.624 68.8866C22.5013 68.8013 22.3467 68.708 22.16 68.6066C21.9787 68.5 21.7627 68.404 21.512 68.3186C21.2613 68.228 20.9627 68.1826 20.616 68.1826C20.296 68.1826 20.0133 68.2226 19.768 68.3026C19.528 68.3826 19.3253 68.4946 19.16 68.6386C18.9947 68.7826 18.8693 68.9533 18.784 69.1506C18.704 69.3426 18.664 69.5533 18.664 69.7826C18.664 70.076 18.7413 70.3213 18.896 70.5186C19.0507 70.7106 19.2533 70.876 19.504 71.0146C19.76 71.1533 20.0507 71.276 20.376 71.3826C20.7013 71.484 21.032 71.5933 21.368 71.7106C21.7093 71.828 22.0427 71.9613 22.368 72.1106C22.6933 72.26 22.9813 72.4493 23.232 72.6786C23.488 72.908 23.6933 73.188 23.848 73.5186C24.0027 73.8493 24.08 74.252 24.08 74.7266C24.08 75.2386 23.992 75.7186 23.816 76.1666C23.64 76.6146 23.384 77.0066 23.048 77.3426C22.7173 77.6733 22.3067 77.9346 21.816 78.1266C21.3307 78.3186 20.776 78.4146 20.152 78.4146C19.784 78.4146 19.424 78.3773 19.072 78.3026C18.7253 78.2333 18.392 78.1346 18.072 78.0066C17.7573 77.8733 17.4613 77.7133 17.184 77.5266C16.9067 77.34 16.6587 77.132 16.44 76.9026L16.984 76.0066C17.032 75.932 17.0933 75.8733 17.168 75.8306C17.2427 75.788 17.3253 75.7666 17.416 75.7666C17.5387 75.7666 17.6747 75.8253 17.824 75.9426C17.9733 76.0546 18.152 76.18 18.36 76.3186C18.5733 76.452 18.8293 76.5773 19.128 76.6946C19.4267 76.8066 19.784 76.8626 20.2 76.8626C20.8773 76.8626 21.4 76.6973 21.768 76.3666C22.1413 76.036 22.328 75.58 22.328 74.9986C22.328 74.6733 22.2507 74.4093 22.096 74.2066C21.9413 73.9986 21.736 73.8253 21.48 73.6866C21.2293 73.548 20.9413 73.4306 20.616 73.3346C20.2907 73.2386 19.96 73.1373 19.624 73.0306C19.288 72.9186 18.9573 72.7906 18.632 72.6466C18.3067 72.4973 18.016 72.3053 17.76 72.0706C17.5093 71.8306 17.3067 71.5373 17.152 71.1906C16.9973 70.8386 16.92 70.4013 16.92 69.8786C16.92 69.4626 17 69.06 17.16 68.6706C17.3253 68.2813 17.5627 67.9373 17.872 67.6386C18.1867 67.3346 18.5733 67.092 19.032 66.9106C19.4907 66.7293 20.0133 66.6386 20.6 66.6386C21.2613 66.6386 21.8667 66.7426 22.416 66.9506C22.9707 67.1586 23.448 67.4546 23.848 67.8386L23.392 68.7346ZM34.1024 75.7186C34.2037 75.7186 34.2917 75.7586 34.3664 75.8386L35.1104 76.6466C34.641 77.212 34.065 77.6493 33.3824 77.9586C32.6997 78.2626 31.8837 78.4146 30.9344 78.4146C30.0917 78.4146 29.329 78.2706 28.6464 77.9826C27.969 77.6893 27.3904 77.284 26.9104 76.7666C26.4304 76.244 26.0597 75.6226 25.7984 74.9026C25.5424 74.1826 25.4144 73.3906 25.4144 72.5266C25.4144 71.6626 25.5504 70.8706 25.8224 70.1506C26.0997 69.4253 26.4864 68.804 26.9824 68.2866C27.4837 67.764 28.081 67.3586 28.7744 67.0706C29.473 66.7826 30.241 66.6386 31.0784 66.6386C31.9104 66.6386 32.6437 66.7746 33.2784 67.0466C33.9184 67.3133 34.473 67.6706 34.9424 68.1186L34.3264 68.9906C34.2837 69.0493 34.233 69.1 34.1744 69.1426C34.1157 69.1853 34.0357 69.2066 33.9344 69.2066C33.8277 69.2066 33.705 69.1586 33.5664 69.0626C33.433 68.9613 33.2597 68.852 33.0464 68.7346C32.8384 68.612 32.5744 68.5026 32.2544 68.4066C31.9397 68.3053 31.545 68.2546 31.0704 68.2546C30.521 68.2546 30.017 68.3506 29.5584 68.5426C29.0997 68.7346 28.705 69.0146 28.3744 69.3826C28.0437 69.7506 27.785 70.1986 27.5984 70.7266C27.417 71.2546 27.3264 71.8546 27.3264 72.5266C27.3264 73.204 27.4224 73.8093 27.6144 74.3426C27.8064 74.8706 28.0704 75.3186 28.4064 75.6866C28.7424 76.0493 29.137 76.3266 29.5904 76.5186C30.0437 76.7106 30.5317 76.8066 31.0544 76.8066C31.3744 76.8066 31.6597 76.7906 31.9104 76.7586C32.1664 76.7213 32.401 76.6653 32.6144 76.5906C32.8277 76.5106 33.0277 76.412 33.2144 76.2946C33.4064 76.1773 33.5957 76.0333 33.7824 75.8626C33.889 75.7666 33.9957 75.7186 34.1024 75.7186ZM38.6074 78.2866H36.7274V66.7666H38.6074V78.2866ZM48.5288 76.7746L48.5208 78.2866H41.3368V66.7666H48.5208V68.2786H43.2168V71.7506H47.4568V73.2146H43.2168V76.7746H48.5288ZM60.0915 66.7666V78.2866H59.1395C58.9955 78.2866 58.8728 78.2626 58.7715 78.2146C58.6702 78.1613 58.5742 78.076 58.4835 77.9586L52.1555 69.8306C52.1715 69.9853 52.1822 70.14 52.1875 70.2946C52.1982 70.444 52.2035 70.5826 52.2035 70.7106V78.2866H50.5555V66.7666H51.5315C51.6115 66.7666 51.6782 66.772 51.7315 66.7826C51.7902 66.788 51.8435 66.8013 51.8915 66.8226C51.9395 66.844 51.9848 66.876 52.0275 66.9186C52.0702 66.9613 52.1155 67.0146 52.1635 67.0786L58.4995 75.2146C58.4835 75.0493 58.4702 74.8866 58.4595 74.7266C58.4542 74.5666 58.4515 74.4173 58.4515 74.2786V66.7666H60.0915ZM70.8368 75.7186C70.9381 75.7186 71.0261 75.7586 71.1008 75.8386L71.8448 76.6466C71.3754 77.212 70.7994 77.6493 70.1168 77.9586C69.4341 78.2626 68.6181 78.4146 67.6688 78.4146C66.8261 78.4146 66.0634 78.2706 65.3808 77.9826C64.7034 77.6893 64.1248 77.284 63.6448 76.7666C63.1648 76.244 62.7941 75.6226 62.5328 74.9026C62.2768 74.1826 62.1488 73.3906 62.1488 72.5266C62.1488 71.6626 62.2848 70.8706 62.5568 70.1506C62.8341 69.4253 63.2208 68.804 63.7168 68.2866C64.2181 67.764 64.8154 67.3586 65.5087 67.0706C66.2074 66.7826 66.9754 66.6386 67.8128 66.6386C68.6448 66.6386 69.3781 66.7746 70.0128 67.0466C70.6528 67.3133 71.2074 67.6706 71.6768 68.1186L71.0608 68.9906C71.0181 69.0493 70.9674 69.1 70.9088 69.1426C70.8501 69.1853 70.7701 69.2066 70.6688 69.2066C70.5621 69.2066 70.4394 69.1586 70.3008 69.0626C70.1674 68.9613 69.9941 68.852 69.7808 68.7346C69.5728 68.612 69.3088 68.5026 68.9888 68.4066C68.6741 68.3053 68.2794 68.2546 67.8048 68.2546C67.2554 68.2546 66.7514 68.3506 66.2928 68.5426C65.8341 68.7346 65.4394 69.0146 65.1088 69.3826C64.7781 69.7506 64.5194 70.1986 64.3328 70.7266C64.1514 71.2546 64.0608 71.8546 64.0608 72.5266C64.0608 73.204 64.1568 73.8093 64.3488 74.3426C64.5408 74.8706 64.8048 75.3186 65.1408 75.6866C65.4768 76.0493 65.8714 76.3266 66.3248 76.5186C66.7781 76.7106 67.2661 76.8066 67.7888 76.8066C68.1088 76.8066 68.3941 76.7906 68.6448 76.7586C68.9008 76.7213 69.1354 76.6653 69.3488 76.5906C69.5621 76.5106 69.7621 76.412 69.9488 76.2946C70.1408 76.1773 70.3301 76.0333 70.5168 75.8626C70.6234 75.7666 70.7301 75.7186 70.8368 75.7186ZM80.6538 76.7746L80.6458 78.2866H73.4618V66.7666H80.6458V68.2786H75.3418V71.7506H79.5818V73.2146H75.3418V76.7746H80.6538ZM29.624 82.7666V94.2866H27.976V86.3906C27.976 86.2626 27.9787 86.124 27.984 85.9746C27.9947 85.82 28.008 85.6653 28.024 85.5106L24.32 92.3506C24.176 92.6333 23.9547 92.7746 23.656 92.7746H23.392C23.088 92.7746 22.8667 92.6333 22.728 92.3506L18.968 85.4946C18.984 85.6493 18.9947 85.804 19 85.9586C19.0107 86.1133 19.016 86.2573 19.016 86.3906V94.2866H17.368V82.7666H18.768C18.9333 82.7666 19.0613 82.7826 19.152 82.8146C19.2427 82.8413 19.3253 82.9293 19.4 83.0786L23.096 89.7746C23.176 89.9293 23.2507 90.0893 23.32 90.2546C23.3947 90.4146 23.4613 90.58 23.52 90.7506C23.584 90.58 23.6507 90.412 23.72 90.2466C23.7947 90.076 23.872 89.9133 23.952 89.7586L27.592 83.0786C27.6667 82.9293 27.7493 82.8413 27.84 82.8146C27.9307 82.7826 28.0587 82.7666 28.224 82.7666H29.624ZM36.8964 92.7746C37.339 92.7746 37.7337 92.7 38.0804 92.5506C38.4324 92.4013 38.7284 92.1933 38.9684 91.9266C39.2137 91.66 39.4004 91.34 39.5284 90.9666C39.6564 90.588 39.7204 90.1693 39.7204 89.7106V82.7666H41.5844V89.7106C41.5844 90.388 41.475 91.0146 41.2564 91.5906C41.043 92.1666 40.7337 92.6653 40.3284 93.0866C39.923 93.5026 39.4297 93.8306 38.8484 94.0706C38.2724 94.3053 37.6217 94.4226 36.8964 94.4226C36.171 94.4226 35.5177 94.3053 34.9364 94.0706C34.3604 93.8306 33.8697 93.5026 33.4644 93.0866C33.059 92.6653 32.747 92.1666 32.5284 91.5906C32.315 91.0146 32.2084 90.388 32.2084 89.7106V82.7666H34.0804V89.7026C34.0804 90.1613 34.1444 90.58 34.2724 90.9586C34.4004 91.332 34.5844 91.6546 34.8244 91.9266C35.0644 92.1933 35.3577 92.4013 35.7044 92.5506C36.0564 92.7 36.4537 92.7746 36.8964 92.7746ZM50.2045 84.7346C50.1458 84.8306 50.0845 84.9026 50.0205 84.9506C49.9565 84.9933 49.8765 85.0146 49.7805 85.0146C49.6792 85.0146 49.5645 84.972 49.4365 84.8866C49.3138 84.8013 49.1592 84.708 48.9725 84.6066C48.7912 84.5 48.5752 84.404 48.3245 84.3186C48.0738 84.228 47.7752 84.1826 47.4285 84.1826C47.1085 84.1826 46.8258 84.2226 46.5805 84.3026C46.3405 84.3826 46.1378 84.4946 45.9725 84.6386C45.8072 84.7826 45.6818 84.9533 45.5965 85.1506C45.5165 85.3426 45.4765 85.5533 45.4765 85.7826C45.4765 86.076 45.5538 86.3213 45.7085 86.5186C45.8632 86.7106 46.0658 86.876 46.3165 87.0146C46.5725 87.1533 46.8632 87.276 47.1885 87.3826C47.5138 87.484 47.8445 87.5933 48.1805 87.7106C48.5218 87.828 48.8552 87.9613 49.1805 88.1106C49.5058 88.26 49.7938 88.4493 50.0445 88.6786C50.3005 88.908 50.5058 89.188 50.6605 89.5186C50.8152 89.8493 50.8925 90.252 50.8925 90.7266C50.8925 91.2386 50.8045 91.7186 50.6285 92.1666C50.4525 92.6146 50.1965 93.0066 49.8605 93.3426C49.5298 93.6733 49.1192 93.9346 48.6285 94.1266C48.1432 94.3186 47.5885 94.4146 46.9645 94.4146C46.5965 94.4146 46.2365 94.3773 45.8845 94.3026C45.5378 94.2333 45.2045 94.1346 44.8845 94.0066C44.5698 93.8733 44.2738 93.7133 43.9965 93.5266C43.7192 93.34 43.4712 93.132 43.2525 92.9026L43.7965 92.0066C43.8445 91.932 43.9058 91.8733 43.9805 91.8306C44.0552 91.788 44.1378 91.7666 44.2285 91.7666C44.3512 91.7666 44.4872 91.8253 44.6365 91.9426C44.7858 92.0546 44.9645 92.18 45.1725 92.3186C45.3858 92.452 45.6418 92.5773 45.9405 92.6946C46.2392 92.8066 46.5965 92.8626 47.0125 92.8626C47.6898 92.8626 48.2125 92.6973 48.5805 92.3666C48.9538 92.036 49.1405 91.58 49.1405 90.9986C49.1405 90.6733 49.0632 90.4093 48.9085 90.2066C48.7538 89.9986 48.5485 89.8253 48.2925 89.6866C48.0418 89.548 47.7538 89.4306 47.4285 89.3346C47.1032 89.2386 46.7725 89.1373 46.4365 89.0306C46.1005 88.9186 45.7698 88.7906 45.4445 88.6466C45.1192 88.4973 44.8285 88.3053 44.5725 88.0706C44.3218 87.8306 44.1192 87.5373 43.9645 87.1906C43.8098 86.8386 43.7325 86.4013 43.7325 85.8786C43.7325 85.4626 43.8125 85.06 43.9725 84.6706C44.1378 84.2813 44.3752 83.9373 44.6845 83.6386C44.9992 83.3346 45.3858 83.092 45.8445 82.9106C46.3032 82.7293 46.8258 82.6386 47.4125 82.6386C48.0738 82.6386 48.6792 82.7426 49.2285 82.9506C49.7832 83.1586 50.2605 83.4546 50.6605 83.8386L50.2045 84.7346ZM60.1069 92.7746L60.0989 94.2866H52.9149V82.7666H60.0989V84.2786H54.7949V87.7506H59.0349V89.2146H54.7949V92.7746H60.1069ZM66.6776 92.7746C67.1203 92.7746 67.515 92.7 67.8616 92.5506C68.2136 92.4013 68.5096 92.1933 68.7496 91.9266C68.995 91.66 69.1816 91.34 69.3096 90.9666C69.4376 90.588 69.5016 90.1693 69.5016 89.7106V82.7666H71.3656V89.7106C71.3656 90.388 71.2563 91.0146 71.0376 91.5906C70.8243 92.1666 70.515 92.6653 70.1096 93.0866C69.7043 93.5026 69.211 93.8306 68.6296 94.0706C68.0536 94.3053 67.403 94.4226 66.6776 94.4226C65.9523 94.4226 65.299 94.3053 64.7176 94.0706C64.1416 93.8306 63.651 93.5026 63.2456 93.0866C62.8403 92.6653 62.5283 92.1666 62.3096 91.5906C62.0963 91.0146 61.9896 90.388 61.9896 89.7106V82.7666H63.8616V89.7026C63.8616 90.1613 63.9256 90.58 64.0536 90.9586C64.1816 91.332 64.3656 91.6546 64.6056 91.9266C64.8456 92.1933 65.139 92.4013 65.4856 92.5506C65.8376 92.7 66.235 92.7746 66.6776 92.7746ZM86.2178 82.7666V94.2866H84.5698V86.3906C84.5698 86.2626 84.5724 86.124 84.5778 85.9746C84.5884 85.82 84.6018 85.6653 84.6178 85.5106L80.9138 92.3506C80.7698 92.6333 80.5484 92.7746 80.2498 92.7746H79.9858C79.6818 92.7746 79.4604 92.6333 79.3218 92.3506L75.5618 85.4946C75.5778 85.6493 75.5884 85.804 75.5938 85.9586C75.6044 86.1133 75.6098 86.2573 75.6098 86.3906V94.2866H73.9618V82.7666H75.3618C75.5271 82.7666 75.6551 82.7826 75.7458 82.8146C75.8364 82.8413 75.9191 82.9293 75.9938 83.0786L79.6898 89.7746C79.7698 89.9293 79.8444 90.0893 79.9138 90.2546C79.9884 90.4146 80.0551 90.58 80.1138 90.7506C80.1778 90.58 80.2444 90.412 80.3138 90.2466C80.3884 90.076 80.4658 89.9133 80.5458 89.7586L84.1858 83.0786C84.2604 82.9293 84.3431 82.8413 84.4338 82.8146C84.5244 82.7826 84.6524 82.7666 84.8178 82.7666H86.2178Z" fill="black"/>
</svg>
