<svg width="21" height="21" viewBox="0 0 21 21" fill="none" xmlns="http://www.w3.org/2000/svg">
<path fill-rule="evenodd" clip-rule="evenodd" d="M14.3411 1.32568H6.66097C3.83332 1.32568 1.54102 3.61798 1.54102 6.44572V14.1257C1.54102 16.9533 3.83332 19.2457 6.66097 19.2457H14.3411C17.1687 19.2457 19.4611 16.9533 19.4611 14.1257V6.44572C19.4611 3.61798 17.1687 1.32568 14.3411 1.32568Z" stroke="#FEFEFE" stroke-width="2" stroke-linecap="round" stroke-linejoin="round"/>
<path fill-rule="evenodd" clip-rule="evenodd" d="M10.5002 14.1268C8.37926 14.1268 6.66016 12.4076 6.66016 10.2868C6.66016 8.16588 8.37926 6.44678 10.5002 6.44678C12.621 6.44678 14.3402 8.16588 14.3402 10.2868C14.3402 11.3051 13.9356 12.2819 13.2154 13.002C12.4953 13.7221 11.5185 14.1268 10.5002 14.1268Z" stroke="#FEFEFE" stroke-width="2" stroke-linecap="round" stroke-linejoin="round"/>
<path d="M15.3418 5.16672C15.3418 5.01202 15.4672 4.88672 15.6218 4.88672C15.7765 4.88672 15.9018 5.01202 15.9018 5.16672C15.9018 5.32132 15.7765 5.44672 15.6218 5.44672C15.4672 5.44672 15.3418 5.32132 15.3418 5.16672Z" stroke="#FEFEFE" stroke-width="2"/>
<path d="M15.6205 4.52612C15.267 4.52612 14.9805 4.81272 14.9805 5.16612C14.9805 5.51962 15.267 5.80612 15.6205 5.80612C15.9739 5.80612 16.2605 5.51962 16.2605 5.16612C16.2605 4.81272 15.9739 4.52612 15.6205 4.52612Z" stroke="#FEFEFE" stroke-width="2" stroke-linecap="round"/>
</svg>
