<svg width="25" height="25" viewBox="0 0 25 25" fill="none" xmlns="http://www.w3.org/2000/svg">
<path d="M12.5 0.786621C5.89999 0.786621 0.5 6.17461 0.5 12.8106C0.5 18.8106 4.89199 23.7906 10.628 24.6906V16.2906H7.57996V12.8106H10.628V10.1586C10.628 7.14662 12.416 5.49061 15.164 5.49061C16.472 5.49061 17.84 5.71861 17.84 5.71861V8.68262H16.328C14.84 8.68262 14.372 9.60662 14.372 10.5546V12.8106H17.708L17.168 16.2906H14.372V24.6906C17.1997 24.244 19.7747 22.8012 21.6319 20.6226C23.4891 18.4441 24.5065 15.6733 24.5 12.8106C24.5 6.17461 19.1 0.786621 12.5 0.786621Z" fill="#FEFEFE"/>
</svg>
