<svg width="27" height="19" viewBox="0 0 27 19" fill="none" xmlns="http://www.w3.org/2000/svg">
<path fill-rule="evenodd" clip-rule="evenodd" d="M10.9244 12.9572V5.77412C13.4744 6.97402 15.4494 8.13312 17.7852 9.38282C15.8587 10.4513 13.4744 11.6501 10.9244 12.9572ZM25.1357 2.20161C24.6958 1.62208 23.9461 1.17096 23.148 1.02161C20.8019 0.576113 6.16608 0.574843 3.82134 1.02161C3.18128 1.1416 2.61133 1.43163 2.12173 1.88224C0.0587578 3.79699 0.705188 14.0652 1.20245 15.7285C1.41155 16.4484 1.68187 16.9676 2.02229 17.3085C2.4609 17.7591 3.06142 18.0693 3.7512 18.2085C5.68284 18.608 15.6343 18.8314 23.1071 18.2685C23.7957 18.1485 24.4051 17.8282 24.8858 17.3585C26.7932 15.4514 26.6632 4.60652 25.1357 2.20161Z" fill="#FEFEFE"/>
</svg>
