<svg width="25" height="20" viewBox="0 0 25 20" fill="none" xmlns="http://www.w3.org/2000/svg">
<path fill-rule="evenodd" clip-rule="evenodd" d="M8.24731 19.887C17.3038 19.887 22.2575 12.4992 22.2575 6.09332C22.2575 5.88302 22.2575 5.67422 22.2431 5.46632C23.2067 4.78102 24.0383 3.93024 24.6995 2.95672C23.8019 3.34896 22.8479 3.6062 21.8723 3.71962C22.8995 3.11352 23.6687 2.16132 24.0371 1.03775C23.0699 1.60248 22.0127 2.00105 20.9099 2.21491C19.045 0.26312 15.9262 0.16856 13.9426 2.00455C12.6646 3.18838 12.121 4.95342 12.5182 6.63702C8.55931 6.44092 4.87048 4.60022 2.36964 1.57213C1.06283 3.78737 1.73124 6.62022 3.89486 8.04272C3.11125 8.02022 2.34444 7.81252 1.65923 7.43682V7.49842C1.66043 9.80582 3.31286 11.7926 5.60969 12.2498C4.88488 12.4447 4.12407 12.473 3.38726 12.3324C4.03166 14.3078 5.88089 15.6608 7.98691 15.6998C6.24329 17.0491 4.08927 17.7817 1.87164 17.7793C1.48043 17.7782 1.08923 17.7557 0.699219 17.7096C2.95165 19.1321 5.57128 19.887 8.24731 19.8835" fill="#FEFEFE"/>
</svg>
